<?xml version="1.0" encoding="UTF-8"?>
<svg width="700pt" height="700pt" version="1.1" viewBox="0 0 700 700" xmlns="http://www.w3.org/2000/svg">
 <g>
  <path d="m208.77 359.37c11.719-11.562 17.613-25.789 17.613-42.336s-5.8945-30.773-17.613-42.531c-11.562-11.562-25.789-17.43-42.336-17.43s-30.773 5.8516-42.531 17.43c-11.562 11.746-17.43 25.984-17.43 42.531 0 16.562 5.8516 30.773 17.43 42.336 11.746 11.762 25.984 17.613 42.531 17.613 16.547-0.003907 30.77-5.8555 42.336-17.613z"/>
  <path d="m529.49 60.129-50.664-32.914-190.02 69.566 113.33 91.266-140-44.828 1.4141-6.0469c-0.19531-0.19531-0.19531-0.33594-0.19531-0.53125l0.37891 0.19531 24.879-107.13-50.848-16.363-38.793 165.63 50.875 16.367 0.19531-0.53125v0.53125l126.84 40.738c-15.484 13.523-35.027 25.984-58.703 37.547-0.18359 0.16797-0.53125 0.16797-0.91016 0.33594h-0.15234c-20.848 9.8008-44.129 18.871-70.309 27.242l-18.828 40.738 37.703 45.723v-0.19531l130.94 158.52h69.203l-159.59-193.2 12.824-9.0703 28.113 34.133c6.9297-3.3477 12.445-5.8516 16.199-7.6445 70.422-33.977 117.05-75.25 139.66-123.97 6.5781-13.355 7.4492-26.879 2.6602-40.738-4.4531-12.629-12.293-22.262-23.66-28.84l-99.625-66.879z"/>
  <path d="m258.57 402.25-37.352-45.539-84.156 181.8h58.887z"/>
 </g>
</svg>
